#!OML:ASF F:\VICON\USERDATA\INSTALL\rory3\rory3.ASF
:FULLY-SPECIFIED
:DEGREES
2197
root -11.6948 17.7425 6.60657 -363.351 82.7825 -362.639
lowerback 13.1345 0.0508418 -4.61698
upperback 0.733429 -0.525825 0.741783
thorax -6.55236 -0.0912711 3.49435
lowerneck -14.9392 -7.47315 -13.6061
upperneck 35.6236 -9.48643 9.6592
head 16.5509 -4.20385 4.9581
rclavicle -5.05658e-015 1.98785e-015
rhumerus -41.1289 -26.9641 -67.7495
rradius 35.5467
rwrist 4.68491
rhand -20.778 8.82598
rfingers 7.12502
rthumb 5.58864 -21.0803
lclavicle -5.05658e-015 1.98785e-015
lhumerus -34.5989 11.6225 74.9803
lradius 32.9092
lwrist -4.22919
lhand -21.395 25.9711
lfingers 7.12502
lthumb 4.99292 55.8922
rfemur -15.2485 -4.04237 17.7043
rtibia 42.7512
rfoot -23.6418 12.6839
rtoes -22.1125
lfemur -7.49689 -1.86066 -22.8953
ltibia 28.2676
lfoot -15.6008 -6.29366
ltoes 35.4545
2198
root -11.7061 17.7533 6.62163 -362.009 82.6826 -361.172
lowerback 13.2804 0.0537666 -4.76165
upperback 0.776361 -0.552651 0.675952
thorax -6.58504 -0.100168 3.51295
lowerneck -14.9652 -7.41172 -13.6501
upperneck 35.7478 -9.33222 9.54641
head 16.5905 -4.15976 4.95211
rclavicle -6.67171e-015 3.77691e-015
rhumerus -41.0032 -26.1745 -68.2144
rradius 35.4116
rwrist 4.97664
rhand -20.7188 8.80351
rfingers 7.12502
rthumb 5.64588 -21.1013
lclavicle -6.67171e-015 3.77691e-015
lhumerus -34.5866 11.9757 74.7026
lradius 32.9203
lwrist -4.30369
lhand -20.8761 25.2763
lfingers 7.12502
lthumb 5.49397 55.1851
rfemur -15.1551 -3.95765 17.1376
rtibia 42.9159
rfoot -23.6843 11.0216
rtoes -20.7964
lfemur -7.17891 -2.08686 -22.9507
ltibia 27.9373
lfoot -15.0386 -6.35345
ltoes 33.9596
2199
root -11.7145 17.7644 6.6351 -362.236 82.6214 -361.337
lowerback 13.3475 0.0535046 -4.57284
upperback 0.813243 -0.531338 0.59777
thorax -6.58736 -0.0966208 3.31912
lowerneck -14.9629 -7.4005 -13.6445
upperneck 35.9101 -9.275 9.44129
head 16.6576 -4.14765 4.92437
rclavicle 2.06239e-015 -9.93923e-016
rhumerus -40.9783 -25.7027 -68.5592
rradius 35.1949
rwrist 5.49324
rhand -20.462 9.04404
rfingers 7.12502
rthumb 5.8938 -20.854
lclavicle 2.06239e-015 -9.93923e-016
lhumerus -34.5389 12.2276 74.3877
lradius 32.9341
lwrist -4.48926
lhand -20.2796 24.6733
lfingers 7.12502
lthumb 6.06987 54.5663
rfemur -15.2376 -4.31721 16.8791
rtibia 42.8881
rfoot -23.5039 8.29737
rtoes -22.0608
lfemur -6.98663 -2.46702 -22.8119
ltibia 27.7367
lfoot -14.3112 -5.64637
ltoes 18.399
2200
root -11.7238 17.7708 6.65804 -362.776 82.5874 -361.815
lowerback 13.4479 0.0757532 -4.44274
upperback 0.817581 -0.489698 0.549934
thorax -6.64405 -0.0792069 3.18787
lowerneck -14.8668 -7.40853 -13.5246
upperneck 36.0325 -9.25048 9.22268
head 16.6691 -4.14952 4.81585
rclavicle -2.01269e-014 -8.74653e-015
rhumerus -41.0969 -25.5951 -68.6465
rradius 34.9569
rwrist 6.27403
rhand -20.0406 9.38822
rfingers 7.12502
rthumb 6.30064 -20.4981
lclavicle -2.01269e-014 -8.74653e-015
lhumerus -34.5286 12.4371 74.0817
lradius 32.9882
lwrist -4.70323
lhand -19.3914 24.0905
lfingers 7.12502
lthumb 6.92732 53.9571
rfemur -15.1695 -4.42689 16.6486
rtibia 42.7637
rfoot -23.2662 5.73297
rtoes -22.2301
lfemur -6.8644 -2.38576 -22.6346
ltibia 27.5806
lfoot -14.2352 -5.71465
ltoes 17.7167
2201
root -11.7309 17.777 6.6901 -362.852 82.5815 -361.791
lowerback 13.5396 0.124867 -4.46433
upperback 0.846513 -0.434518 0.490387
thorax -6.66953 -0.0518106 3.12718
lowerneck -14.7838 -7.4144 -13.4074
upperneck 36.1208 -9.25674 9.10235
head 16.6785 -4.15129 4.74523
rclavicle 1.97542e-014 -5.96354e-016
rhumerus -41.2433 -25.6118 -68.6974
rradius 34.8028
rwrist 6.86858
rhand -20.0592 9.67952
rfingers 7.12502
rthumb 6.28269 -20.2073
lclavicle 1.97542e-014 -5.96354e-016
lhumerus -34.4773 12.435 73.8411
lradius 33.0913
lwrist -4.72041
lhand -18.4212 23.7448
lfingers 7.12502
lthumb 7.86382 53.5786
rfemur -14.9526 -4.38755 16.3329
rtibia 42.5735
rfoot -23.0037 3.29232
rtoes -22.1063
lfemur -6.69094 -2.1687 -22.4838
ltibia 27.3961
lfoot -14.1373 -5.94399
ltoes 17.2969
2202
root -11.7323 17.7891 6.73147 -363.866 82.6027 -362.76
lowerback 13.5123 0.169756 -4.49005
upperback 0.870314 -0.374879 0.515551
thorax -6.63364 -0.0227184 3.15679
lowerneck -14.6723 -7.42876 -13.4315
upperneck 36.2126 -9.26572 9.06972
head 16.7011 -4.16288 4.74046
rclavicle -3.55328e-015 3.97569e-015
rhumerus -41.43 -25.5951 -68.7053
rradius 34.683
rwrist 7.24751
rhand -20.2518 9.68496
rfingers 7.12502
rthumb 6.09669 -20.2073
lclavicle -3.55328e-015 3.97569e-015
lhumerus -34.4839 12.2965 73.6837
lradius 33.2186
lwrist -4.43818
lhand -17.6834 23.4221
lfingers 7.12502
lthumb 8.57587 53.2279
rfemur -14.7684 -4.31474 16.1588
rtibia 42.3702
rfoot -22.4848 1.27833
rtoes -20.4012
lfemur -6.50171 -2.19575 -22.1949
ltibia 27.1297
lfoot -14.0475 -5.98407
ltoes 16.7506
2203
root -11.7325 17.8048 6.76698 -365.802 82.6867 -364.699
lowerback 13.4433 0.109094 -4.43221
upperback 0.89419 -0.432848 0.658303
thorax -6.56375 -0.052844 3.28584
lowerneck -14.6848 -7.40549 -13.5856
upperneck 36.381 -9.14187 8.9796
head 16.7789 -4.14387 4.76077
rclavicle -3.00662e-014 4.37326e-015
rhumerus -41.4708 -25.4437 -68.6998
rradius 34.512
rwrist 7.51743
rhand -20.4352 9.53554
rfingers 7.12502
rthumb 5.91968 -20.3618
lclavicle -3.00662e-014 4.37326e-015
lhumerus -34.6096 12.4457 73.5461
lradius 33.3795
lwrist -4.13105
lhand -16.956 23.0203
lfingers 7.12502
lthumb 9.27779 52.7962
rfemur -14.6206 -4.19981 16.0615
rtibia 42.138
rfoot -21.966 -0.341457
rtoes -16.7747
lfemur -6.34581 -2.60652 -21.836
ltibia 26.8572
lfoot -13.9433 -5.70741
ltoes 16.4399
2204
root -11.7356 17.8106 6.79456 -366.927 82.7726 -365.83
lowerback 13.4118 0.0551251 -4.37367
upperback 0.90725 -0.486784 0.759745
thorax -6.52694 -0.0805683 3.37013
lowerneck -14.7109 -7.37908 -13.7401
upperneck 36.5516 -9.01076 8.89173
head 16.8608 -4.12149 4.78366
rclavicle 1.3741e-014 3.57812e-015
rhumerus -41.5085 -25.478 -68.5587
rradius 34.3029
rwrist 7.62634
rhand -20.434 9.43596
rfingers 7.12502
rthumb 5.92083 -20.4613
lclavicle 1.3741e-014 3.57812e-015
lhumerus -34.717 12.7714 73.3956
lradius 33.4764
lwrist -4.13054
lhand -16.1478 22.2675
lfingers 7.12502
lthumb 10.0576 52.0072
rfemur -14.4881 -4.04528 15.7885
rtibia 41.8629
rfoot -21.4961 -1.82646
rtoes -13.2152
lfemur -6.25881 -2.61826 -21.6379
ltibia 26.6226
lfoot -14.0287 -5.4293
ltoes 14.6084
2205
root -11.7394 17.8022 6.82411 -367.881 82.8244 -366.839
lowerback 13.3192 0.00297665 -4.27651
upperback 0.893258 -0.534922 0.807954
thorax -6.4861 -0.107377 3.37406
lowerneck -14.6843 -7.32692 -13.755
upperneck 36.718 -8.88672 8.79535
head 16.9168 -4.08395 4.77748
rclavicle -2.53202e-014 1.27222e-014
rhumerus -41.668 -25.817 -68.2811
rradius 34.0707
rwrist 7.80576
rhand -20.2493 9.51334
rfingers 7.12502
rthumb 6.09909 -20.3789
lclavicle -2.53202e-014 1.27222e-014
lhumerus -34.8426 12.8649 73.2458
lradius 33.5874
lwrist -3.94986
lhand -15.2388 21.5575
lfingers 7.12502
lthumb 10.9344 51.2528
rfemur -14.4236 -3.86881 15.4861
rtibia 41.5949
rfoot -20.967 -3.31166
rtoes -10.6427
lfemur -6.31586 -2.02199 -21.4995
ltibia 26.4046
lfoot -14.4344 -4.89251
ltoes 7.85246
2206
root -11.7406 17.8063 6.85571 -368.491 82.8551 -367.5
lowerback 13.1995 -0.0492318 -4.33555
upperback 0.875823 -0.602105 0.908645
thorax -6.43021 -0.138679 3.5255
lowerneck -14.6455 -7.25668 -13.7162
upperneck 36.8948 -8.69193 8.53992
head 16.9487 -4.0309 4.70196
rclavicle -1.63003e-014 1.27222e-014
rhumerus -41.9098 -26.2496 -67.8057
rradius 34.0181
rwrist 7.74808
rhand -19.8754 9.5807
rfingers 7.12502
rthumb 6.46009 -20.3008
lclavicle -1.63003e-014 1.27222e-014
lhumerus -35.0153 13.0678 73.1183
lradius 33.7166
lwrist -3.68108
lhand -16.3541 22.0906
lfingers 7.12502
lthumb 9.85853 51.8398
rfemur -14.344 -3.73451 15.1231
rtibia 41.3006
rfoot -20.4997 -4.6681
rtoes -9.68448
lfemur -6.2375 -2.27843 -21.3124
ltibia 26.2005
lfoot -14.4061 -4.78151
ltoes 8.56615
2207
root -11.7416 17.8101 6.88624 -368.517 82.9194 -367.513
lowerback 13.1129 -0.0553773 -4.54219
upperback 0.907472 -0.626135 1.05309
thorax -6.34219 -0.145338 3.79931
lowerneck -14.6264 -7.23939 -13.738
upperneck 36.988 -8.5465 8.25759
head 16.9531 -4.01068 4.60856
rclavicle -2.43635e-014 -1.43125e-014
rhumerus -42.2325 -26.8682 -67.0737
rradius 34.2654
rwrist 7.50656
rhand -19.1975 9.42122
rfingers 7.12502
rthumb 7.1145 -20.4392
lclavicle -2.43635e-014 -1.43125e-014
lhumerus -35.0871 13.4909 73.0859
lradius 33.7759
lwrist -3.65964
lhand -19.7447 24.0525
lfingers 7.12502
lthumb 6.58628 53.9301
rfemur -14.195 -3.68133 14.6108
rtibia 40.992
rfoot -20.2174 -5.44922
rtoes -8.95498
lfemur -6.12856 -2.37012 -21.2213
ltibia 26.0366
lfoot -14.3516 -4.7557
ltoes 8.13794
2208
root -11.7423 17.8174 6.91634 -368.424 83.0277 -367.379
lowerback 13.0919 -0.00528632 -4.6191
upperback 0.934047 -0.566937 1.08249
thorax -6.30698 -0.11504 3.86296
lowerneck -14.566 -7.29051 -13.723
upperneck 37.0345 -8.59838 8.17188
head 16.9658 -4.0404 4.55937
rclavicle -2.75814e-015 -1.09332e-015
rhumerus -42.6878 -27.6996 -66.3741
rradius 34.4027
rwrist 7.43801
rhand -19.0425 9.21462
rfingers 7.12502
rthumb 7.26417 -20.6407
lclavicle -2.75814e-015 -1.09332e-015
lhumerus -35.0137 13.4503 73.1236
lradius 33.7435
lwrist -3.58142
lhand -21.3983 24.9406
lfingers 7.12502
lthumb 4.98973 54.8618
rfemur -13.9682 -3.67807 14.0259
rtibia 40.6017
rfoot -19.9152 -5.71202
rtoes -7.91882
lfemur -6.02821 -2.42473 -21.1353
ltibia 25.9188
lfoot -14.2799 -4.90227
ltoes 8.36711
2209
root -11.7435 17.8211 6.94862 -368.602 83.1365 -367.483
lowerback 13.1206 0.00470952 -4.57053
upperback 0.970003 -0.547987 1.05477
thorax -6.28722 -0.108274 3.80239
lowerneck -14.5052 -7.32335 -13.758
upperneck 37.0272 -8.6618 8.22317
head 16.9637 -4.06494 4.57753
rclavicle -1.41758e-014 -8.54774e-015
rhumerus -43.0429 -28.2659 -65.9549
rradius 34.3585
rwrist 7.3178
rhand -19.1601 8.96952
rfingers 7.12502
rthumb 7.15063 -20.8897
lclavicle -1.41758e-014 -8.54774e-015
lhumerus -34.9696 13.3772 73.08
lradius 33.7626
lwrist -3.42637
lhand -21.4476 24.9867
lfingers 7.12502
lthumb 4.94212 54.9091
rfemur -13.6962 -3.57726 13.4664
rtibia 40.1667
rfoot -19.6237 -5.83079
rtoes -7.55096
lfemur -5.895 -2.57869 -21.0166
ltibia 25.8131
lfoot -14.2184 -4.95746
ltoes 8.73328
2210
root -11.7466 17.8205 6.98331 -369.263 83.2263 -368.032
lowerback 13.2328 -0.0163378 -4.53303
upperback 0.993765 -0.571711 1.08754
thorax -6.32209 -0.119404 3.8218
lowerneck -14.4692 -7.30798 -13.8717
upperneck 37.0494 -8.62868 8.29012
head 16.9746 -4.0588 4.63771
rclavicle 1.35671e-014 -4.07509e-015
rhumerus -43.3552 -28.604 -65.5848
rradius 34.311
rwrist 7.14635
rhand -19.1955 8.67585
rfingers 7.12502
rthumb 7.11647 -21.1845
lclavicle 1.35671e-014 -4.07509e-015
lhumerus -35.0597 13.4545 73.0218
lradius 33.8854
lwrist -3.27026
lhand -21.6551 25.2525
lfingers 7.12502
lthumb 4.74178 55.1794
rfemur -13.3311 -3.23748 12.9572
rtibia 39.6146
rfoot -19.362 -5.78646
rtoes -5.95045
lfemur -5.7536 -2.65193 -20.8252
ltibia 25.7715
lfoot -14.1919 -5.01441
ltoes 8.81341
2211
root -11.7487 17.8224 7.017 -369.783 83.2881 -368.522
lowerback 13.2754 -0.0487357 -4.51484
upperback 0.969982 -0.613452 1.10593
thorax -6.36713 -0.1385 3.83971
lowerneck -14.4284 -7.26553 -13.8189
upperneck 37.1297 -8.57259 8.26595
head 16.9925 -4.0308 4.63439
rclavicle -1.0548e-014 -1.88845e-015
rhumerus -43.675 -28.9159 -65.2112
rradius 34.2248
rwrist 7.11839
rhand -19.1968 8.32561
rfingers 7.12502
rthumb 7.11515 -21.5348
lclavicle -1.0548e-014 -1.88845e-015
lhumerus -35.2269 13.505 72.8837
lradius 34.0099
lwrist -3.14999
lhand -21.8576 25.1673
lfingers 7.12502
lthumb 4.54627 55.0986
rfemur -13.0234 -2.99599 12.4206
rtibia 39.0188
rfoot -19.0825 -5.45887
rtoes -5.03415
lfemur -5.70676 -2.64771 -20.6344
ltibia 25.7416
lfoot -14.0806 -5.04894
ltoes 7.69978
